<?xml version="1.0" encoding="UTF-8" standalone="no"?>
<!-- Created with Inkscape (http://www.inkscape.org/) -->

<svg
   width="25.46052mm"
   height="16.466692mm"
   viewBox="0 0 25.460519 16.466692"
   version="1.1"
   id="svg1"
   xmlns="http://www.w3.org/2000/svg"
   xmlns:svg="http://www.w3.org/2000/svg">
  <defs
     id="defs1" />
  <g
     id="layer1"
     transform="translate(-84.717,-86.097688)">
    <path
       id="circle1"
       style="stroke-linecap:round"
       d="m 92.949055,86.097688 c -4.543012,0 -8.232055,3.68956 -8.232055,8.232572 0,4.543012 3.689043,8.23412 8.232055,8.23412 1.478195,0 2.865104,-0.39263 4.064868,-1.07642 -0.224567,-0.12435 -0.443442,-0.25728 -0.655257,-0.40049 -1.024461,0.5176 -2.182151,0.8108 -3.409611,0.8108 -4.183079,0 -7.566463,-3.384931 -7.566463,-7.56801 0,-4.183078 3.383384,-7.566463 7.566463,-7.566463 4.183078,0 7.566465,3.383385 7.566465,7.566463 0,2.373498 -1.090173,4.488995 -2.79673,5.87613 0.210302,0.116 0.426431,0.22248 0.649056,0.31729 1.723354,-1.510048 2.813784,-3.725132 2.813784,-6.19342 0,-4.543012 -3.689563,-8.232572 -8.232575,-8.232572 z" />
    <path
       id="path4"
       style="stroke-linecap:round"
       d="m 101.94546,102.56438 c 4.54302,0 8.23206,-3.68956 8.23206,-8.232572 0,-4.543012 -3.68904,-8.23412 -8.23206,-8.23412 -1.47821,0 -2.865121,0.39263 -4.064891,1.07642 0.22457,0.12435 0.44344,0.25728 0.65526,0.40049 1.02446,-0.5176 2.182161,-0.8108 3.409631,-0.8108 4.18308,0 7.56647,3.384931 7.56647,7.56801 0,4.183078 -3.38339,7.566462 -7.56647,7.566462 -4.183101,0 -7.566511,-3.383384 -7.566511,-7.566462 0,-2.373498 1.09018,-4.488995 2.79675,-5.87613 -0.21031,-0.116 -0.42644,-0.22248 -0.64906,-0.31729 -1.72337,1.510048 -2.8138,3.725132 -2.8138,6.19342 0,4.543012 3.68958,8.232572 8.232621,8.232572 z" />
  </g>
</svg>
